HIERARCHY
ROOT Hips
{
	OFFSET -0.001795 -0.223333 0.028219
	CHANNELS 6 Xposition Yposition Zposition Zrotation Yrotation Xrotation 
	JOINT LeftUpLeg
	{
		OFFSET 0.069520 -0.091406 -0.006815
		CHANNELS 3 Zrotation Yrotation Xrotation
		JOINT LeftLeg
		{
			OFFSET 0.034277 -0.375199 -0.004496
			CHANNELS 3 Zrotation Yrotation Xrotation
			JOINT LeftFoot
			{
				OFFSET -0.013596 -0.397961 -0.043693
				CHANNELS 3 Zrotation Yrotation Xrotation
				JOINT LeftToe
				{
					OFFSET 0.026358 -0.055791 0.119288
					CHANNELS 3 Zrotation Yrotation Xrotation
					End Site
					{
						OFFSET 0.000000 0.000000 0.000000
					}
				}
			}
		}
	}
	JOINT RightUpLeg
	{
		OFFSET -0.067670 -0.090522 -0.004320
		CHANNELS 3 Zrotation Yrotation Xrotation
		JOINT RightLeg
		{
			OFFSET -0.038290 -0.382569 -0.008850
			CHANNELS 3 Zrotation Yrotation Xrotation
			JOINT RightFoot
			{
				OFFSET 0.015774 -0.398415 -0.042312
				CHANNELS 3 Zrotation Yrotation Xrotation
				JOINT RightToe
				{
					OFFSET -0.025372 -0.048144 0.123348
					CHANNELS 3 Zrotation Yrotation Xrotation
					End Site
					{
						OFFSET 0.000000 0.000000 0.000000
					}
				}
			}
		}
	}
	JOINT Spine
	{
		OFFSET -0.002533 0.108963 -0.026696
		CHANNELS 3 Zrotation Yrotation Xrotation
		JOINT Spine1
		{
			OFFSET 0.005487 0.135180 0.001092
			CHANNELS 3 Zrotation Yrotation Xrotation
			JOINT Spine2
			{
				OFFSET 0.001457 0.052922 0.025425
				CHANNELS 3 Zrotation Yrotation Xrotation
				JOINT Neck
				{
					OFFSET -0.002778 0.213870 -0.042857
					CHANNELS 3 Zrotation Yrotation Xrotation
					JOINT Head
					{
						OFFSET 0.005152 0.064970 0.051349
						CHANNELS 3 Zrotation Yrotation Xrotation
						End Site
						{
							OFFSET 0.000000 0.000000 0.000000
						}
					}
				}
				JOINT LeftShoulder
				{
					OFFSET 0.078845 0.121749 -0.034090
					CHANNELS 3 Zrotation Yrotation Xrotation
					JOINT LeftArm
					{
						OFFSET 0.090977 0.030469 -0.008868
						CHANNELS 3 Zrotation Yrotation Xrotation
						JOINT LeftForeArm
						{
							OFFSET 0.259612 -0.012772 -0.027456
							CHANNELS 3 Zrotation Yrotation Xrotation
							JOINT LeftHand
							{
								OFFSET 0.249234 0.008986 -0.001171
								CHANNELS 3 Zrotation Yrotation Xrotation
								End Site
								{
									OFFSET 0.000000 0.000000 0.000000
								}
							}
						}
					}
				}
				JOINT RightShoulder
				{
					OFFSET -0.081759 0.118833 -0.038615
					CHANNELS 3 Zrotation Yrotation Xrotation
					JOINT RightArm
					{
						OFFSET -0.096012 0.032551 -0.009143
						CHANNELS 3 Zrotation Yrotation Xrotation
						JOINT RightForeArm
						{
							OFFSET -0.253742 -0.013329 -0.021401
							CHANNELS 3 Zrotation Yrotation Xrotation
							JOINT RightHand
							{
								OFFSET -0.255298 0.007772 -0.005559
								CHANNELS 3 Zrotation Yrotation Xrotation
								End Site
								{
									OFFSET 0.000000 0.000000 0.000000
								}
							}
						}
					}
				}
			}
		}
	}
}
MOTION
Frames: 7
Frame Time: 0.050000
0.000000 0.928865 0.000000 -0.389333 -17.299509 2.042035 10.042826 0.333943 -5.551848 -2.995973 0.763291 12.161253 6.298548 13.376365 3.970127 0.000000 0.000000 0.000000 -3.812960 0.430529 -3.221801 5.209570 -0.263804 6.122723 -4.531504 -9.863523 -1.438163 0.000000 0.000000 0.000000 0.763433 -0.209722 4.586681 -4.972680 2.317129 -1.161158 3.539322 -0.094913 13.437048 1.137556 -0.442941 -22.424605 0.000000 0.000000 0.000000 -32.766220 -3.902954 4.366233 -49.766438 -7.980091 -4.864624 -0.780716 -26.942157 1.835689 0.000000 0.000000 0.000000 30.327488 9.429557 -0.990202 49.679281 -3.430012 -5.465570 7.311676 30.804785 2.322839 0.000000 0.000000 0.000000 
-0.020291 0.927301 -0.001771 -0.401631 -16.712597 1.909081 10.965632 0.468489 -8.238707 -3.173971 1.191468 18.881590 5.896250 12.573206 1.918587 0.000000 0.000000 0.000000 -1.993264 0.325968 -2.857143 4.128858 -0.152892 6.238334 -4.439722 -9.060541 -2.588582 0.000000 0.000000 0.000000 0.842797 -0.228613 4.995895 -5.777843 2.898181 0.860272 4.352941 -1.581842 12.754675 0.236417 -0.002136 -23.586387 0.000000 0.000000 0.000000 -32.538172 -3.299052 4.361174 -49.068605 -10.604790 -3.868325 1.405678 -29.598827 1.589422 0.000000 0.000000 0.000000 29.822582 10.539490 -0.719540 49.277854 -2.209368 -4.720037 6.940503 31.242703 2.164195 0.000000 0.000000 0.000000 
-0.038382 0.928308 -0.003788 -0.638929 -15.791113 2.160592 9.812018 0.423797 -13.672232 0.455876 0.425450 28.199169 4.765161 10.129144 0.846362 0.000000 0.000000 0.000000 -0.591088 0.300324 -3.135168 4.092311 -0.143464 6.860503 -6.021967 -11.763137 -5.185427 0.000000 0.000000 0.000000 1.380212 -0.299438 5.957961 -5.515185 2.697689 0.177953 4.084461 -1.466205 12.969407 0.534883 -0.128386 -22.919665 0.000000 0.000000 0.000000 -33.115372 -5.670198 5.970338 -48.800936 -12.624359 -3.117234 2.399664 -29.158427 1.258818 0.000000 0.000000 0.000000 29.376414 10.572375 -0.332924 51.604925 -1.706987 -4.987872 4.773421 30.393957 1.614652 0.000000 0.000000 0.000000 
-0.053892 0.926612 -0.004510 -0.804360 -16.203775 2.545485 9.846940 0.643922 -18.361987 1.423830 0.469058 34.922931 5.544693 11.678301 2.353528 0.000000 0.000000 0.000000 0.672295 0.324982 -3.751637 3.982419 -0.071919 8.404061 -6.926522 -13.943438 -5.307982 0.000000 0.000000 0.000000 1.576669 -0.331425 6.463765 -6.163122 3.077564 0.755813 4.421717 -1.313260 12.186746 0.346309 -0.021952 -22.550942 0.000000 0.000000 0.000000 -33.518473 -5.761182 6.056390 -48.778049 -13.452984 -2.735078 2.285043 -32.592978 1.521063 0.000000 0.000000 0.000000 28.761319 11.894685 0.572538 52.015614 -0.837062 -4.623092 5.282626 29.853489 1.711809 0.000000 0.000000 0.000000 
-0.066867 0.927148 -0.003352 -0.391619 -16.916241 2.213265 7.964251 0.466249 -22.061763 2.017721 0.641465 39.905275 5.940894 12.396453 2.705938 0.000000 0.000000 0.000000 1.217943 0.283100 -3.491516 2.999784 0.142398 9.894603 -6.943897 -13.557112 -5.943952 0.000000 0.000000 0.000000 1.642503 -0.379628 7.937355 -6.545381 3.303480 0.994345 4.417824 -1.352380 11.295582 -0.598372 0.515556 -23.832911 0.000000 0.000000 0.000000 -34.924816 -6.203678 6.714810 -47.479128 -13.888615 -2.657627 2.793677 -36.047975 1.598015 0.000000 0.000000 0.000000 27.486216 12.402287 0.854124 52.101396 0.773793 -3.894093 8.303665 30.334274 2.434804 0.000000 0.000000 0.000000 
-0.078172 0.928683 0.000616 -0.014849 -17.292911 2.404967 6.529998 0.245900 -24.440011 -0.131418 1.586819 38.043912 6.214413 12.829160 0.082932 0.000000 0.000000 0.000000 1.384834 0.282466 -3.545508 3.295772 0.138448 10.561481 -7.058141 -13.752307 -6.072801 0.000000 0.000000 0.000000 0.291429 -0.282313 9.343363 -4.926658 2.301364 -1.098551 4.169817 -0.234854 13.110384 -1.048730 0.887467 -25.533272 0.000000 0.000000 0.000000 -35.877962 -6.770874 6.995439 -46.204888 -15.846792 -2.062070 0.772135 -37.987042 2.375137 0.000000 0.000000 0.000000 25.960714 12.548538 1.543589 53.180083 2.908129 -3.476355 8.580876 31.424774 2.678899 0.000000 0.000000 0.000000 
-0.088614 0.930824 0.007657 0.734827 -16.721640 1.853728 3.982209 -0.414685 -24.927594 -2.773994 1.944189 30.074056 7.781684 15.940258 1.463609 0.000000 0.000000 0.000000 1.262548 0.165240 -2.367966 3.740998 0.061134 10.604113 -6.916948 -13.656017 -5.604886 0.000000 0.000000 0.000000 -1.074312 -0.140595 11.276144 -4.471285 2.016680 -2.032707 4.205464 -0.245922 13.813040 -1.008763 0.902934 -26.029628 0.000000 0.000000 0.000000 -34.763904 -7.602100 7.359675 -46.414154 -18.242225 -1.096621 1.377559 -38.597958 2.205236 0.000000 0.000000 0.000000 25.586271 13.359744 2.250725 53.567948 5.444383 -2.564635 6.797265 32.397307 2.338775 0.000000 0.000000 0.000000 
